<?xml version="1.0" encoding="UTF-8"?>
<svg version="1.1" xmlns="http://www.w3.org/2000/svg" width="389" height="389">
<path d="M0 0 C0.82062424 -0.00807175 1.64124847 -0.01614349 2.48674011 -0.02445984 C4.22575801 -0.03826426 5.96480259 -0.04900264 7.70385742 -0.05688477 C9.45198724 -0.06831255 11.20008477 -0.08861516 12.94799805 -0.1184082 C42.79194301 -0.62596793 67.07710576 10.59438061 88.54296875 31.23828125 C101.34651493 44.22993446 110.71137538 60.00622139 116.54296875 77.23828125 C116.76742676 77.88297363 116.99188477 78.52766602 117.22314453 79.19189453 C126.18267149 106.30426198 122.09490257 141.18040008 109.5390625 166.33984375 C104.65668122 175.67864913 98.62288149 183.48072719 91.54296875 191.23828125 C90.36347656 192.56279297 90.36347656 192.56279297 89.16015625 193.9140625 C86.96878707 196.36885411 84.75705503 198.80398748 82.54296875 201.23828125 C81.14692016 202.80058893 79.75109242 204.36309397 78.35546875 205.92578125 C73.9335378 210.8407498 69.42477798 215.67172764 64.9074707 220.4987793 C60.61589379 225.08485928 56.34775242 229.69157554 52.09375 234.3125 C48.77177956 237.91719133 45.42867849 241.50141382 42.07739258 245.07885742 C37.40823243 250.06402683 32.76249727 255.05011337 28.3046875 260.2265625 C25.50190878 263.42707479 22.60999344 266.54592697 19.72973633 269.67651367 C16.81463579 272.84661703 13.91890739 276.03248585 11.04296875 279.23828125 C7.26552531 283.44743251 3.44945539 287.62005356 -0.37768555 291.78393555 C-3.19665148 294.85395567 -5.99191069 297.94335046 -8.76953125 301.05078125 C-13.70924622 306.55302604 -18.75985237 311.94915538 -23.81640625 317.34375 C-26.11097255 319.79278156 -28.3929649 322.25217739 -30.66015625 324.7265625 C-58.5750487 355.11492643 -85.084649 381.06185302 -128.45263672 383.34326172 C-156.1331674 384.43102482 -182.05564652 377.16522562 -203.45703125 359.23828125 C-204.45347656 358.40554688 -205.44992188 357.5728125 -206.4765625 356.71484375 C-228.7853638 337.47041858 -243.09806608 309.64555305 -245.45703125 280.23828125 C-247.18874945 244.54880842 -237.1903973 214.30083034 -213.1953125 187.55078125 C-211.1897866 185.357762 -209.15738944 183.19239359 -207.109375 181.0390625 C-204.8881314 178.69350778 -202.74808844 176.31352715 -200.64453125 173.86328125 C-197.99540985 170.7972279 -195.19104875 167.94920751 -192.30004883 165.11230469 C-190.51948957 163.30179034 -188.8546918 161.43663024 -187.19921875 159.51171875 C-183.59338079 155.3643377 -179.85848772 151.35500405 -176.08203125 147.36328125 C-171.26563219 142.25052458 -166.50422097 137.10119903 -161.828125 131.859375 C-158.74312587 128.44910413 -155.60067694 125.09443639 -152.45703125 121.73828125 C-147.80524492 116.77070142 -143.19974844 111.76955855 -138.6640625 106.6953125 C-136.11517364 103.85769995 -133.53817835 101.04649833 -130.95703125 98.23828125 C-127.62369347 94.610893 -124.30756764 90.96934988 -121.01953125 87.30078125 C-116.09121045 81.81420819 -111.09574478 76.39162172 -106.07714844 70.98779297 C-104.49195954 69.27599917 -102.91555315 67.55645508 -101.33984375 65.8359375 C-93.50819524 57.3297264 -85.45830389 49.02476966 -77.34619141 40.78640747 C-76.1510663 39.56905946 -74.9602814 38.34743139 -73.77441406 37.12106323 C-54.57728897 17.29876142 -28.4702781 0.27063949 0 0 Z " fill="#1E3B37" transform="translate(258.45703125,3.76171875)"/>
<path d="M0 0 C0.85053955 0.1652417 1.7010791 0.3304834 2.57739258 0.50073242 C6.768893 1.40858467 8.95907758 2.02318437 11.9375 5.1875 C13.72382542 5.97862691 15.54145152 6.7005074 17.375 7.375 C38.26207557 15.81549495 54.45529469 33.39907454 64.125 53.4375 C69.33342889 66.47196759 71.89531268 78.62205596 71.75 92.625 C71.74840881 93.39665497 71.74681763 94.16830994 71.74517822 94.96334839 C71.61706256 116.35289119 66.12674922 138.14391489 51.8125 154.625 C51.34875977 155.16084717 50.88501953 155.69669434 50.40722656 156.2487793 C46.50878755 160.68953623 42.3671035 164.87270426 38.14916992 169.00830078 C34.75583963 172.33653521 31.59136241 175.77800055 28.51171875 179.39453125 C26.35169977 181.85470175 24.01819726 184.11714924 21.68359375 186.41015625 C19.87272357 188.25343574 18.18428646 190.16572799 16.5 192.125 C14.08132221 194.93326347 11.57850317 197.58720593 8.9375 200.1875 C6.31709391 202.76759215 3.83426588 205.39853607 1.4375 208.1875 C-1.57289766 211.69050819 -4.78025133 214.92520851 -8.0703125 218.1640625 C-10.71115452 220.8463295 -13.16921667 223.66557388 -15.6171875 226.5234375 C-16.71652798 227.78916464 -17.8770434 229.0020434 -19.0625 230.1875 C-23.15219544 229.99524936 -25.12099558 227.39972282 -27.8125 224.5625 C-31.47311334 220.78362896 -35.20478236 217.2501161 -39.19921875 213.83203125 C-41.65396215 211.66547576 -43.92265335 209.3402136 -46.21362305 207.00317383 C-47.87912592 205.36758095 -49.58653047 203.87279277 -51.375 202.375 C-58.80794423 195.91305677 -65.5849108 188.71755062 -72.50830078 181.72119141 C-81.62547898 172.46982397 -81.62547898 172.46982397 -91.25976562 163.76757812 C-95.63916898 159.92907616 -99.62881887 155.65640301 -103.70703125 151.50390625 C-107.68395534 147.48335959 -111.74999533 143.67517698 -116.03564453 139.98730469 C-119.76580323 136.67500284 -123.24427192 133.10895593 -126.75 129.5625 C-127.48283203 128.82515625 -128.21566406 128.0878125 -128.97070312 127.328125 C-130.38084785 125.90907945 -131.78999848 124.48904512 -133.19799805 123.06787109 C-134.75301425 121.49961984 -136.31335225 119.93664775 -137.875 118.375 C-139.18946618 117.06053382 -140.49953955 115.74162144 -141.80078125 114.4140625 C-145.52856056 110.62153268 -149.39427605 107.17419039 -153.55859375 103.86328125 C-155.0625 102.1875 -155.0625 102.1875 -155.0625 98.1875 C-153.82836914 96.42333984 -153.82836914 96.42333984 -152.09765625 94.6484375 C-151.46666016 93.99029053 -150.83566406 93.33214355 -150.18554688 92.65405273 C-149.16557617 91.61873413 -149.16557617 91.61873413 -148.125 90.5625 C-146.74010337 89.12445065 -145.35598632 87.68565012 -143.97265625 86.24609375 C-142.96162842 85.20171143 -142.96162842 85.20171143 -141.93017578 84.13623047 C-139.57899762 81.68301424 -137.3158212 79.16831384 -135.0625 76.625 C-132.05992159 73.2569392 -128.95337357 70.05055937 -125.734375 66.890625 C-123.96961374 65.09287755 -122.32806483 63.2239838 -120.6875 61.3125 C-118.09615795 58.3028247 -115.38995217 55.47661384 -112.5625 52.6875 C-107.8064787 47.98790607 -103.44933042 43.0215573 -99.14453125 37.91015625 C-98.51933594 37.17667969 -97.89414063 36.44320312 -97.25 35.6875 C-96.68667969 35.0171875 -96.12335938 34.346875 -95.54296875 33.65625 C-94.0625 32.1875 -94.0625 32.1875 -92.0625 32.1875 C-91.79050781 31.59195313 -91.51851563 30.99640625 -91.23828125 30.3828125 C-84.83193745 18.42146627 -68.78314922 9.44341718 -56.45703125 5.04296875 C-54.54972701 4.36156642 -52.65358404 3.64894396 -50.76171875 2.92578125 C-49.56160156 2.47589844 -48.36148438 2.02601562 -47.125 1.5625 C-45.44083984 0.92441406 -45.44083984 0.92441406 -43.72265625 0.2734375 C-29.9541951 -3.81154884 -13.90580899 -2.74096939 0 0 Z " fill="#FDFEFD" transform="translate(290.0625,21.8125)"/>
<path d="M0 0 C3.66158419 1.22052806 5.40755929 3.28422489 8 6 C9.41408778 7.43093854 10.83101996 8.85906895 12.25 10.28515625 C13.0234375 11.06310547 13.796875 11.84105469 14.59375 12.64257812 C15.3878125 13.44115234 16.181875 14.23972656 17 15.0625 C17.7940625 15.86494141 18.588125 16.66738281 19.40625 17.49414062 C23.1315617 21.23497446 26.83179189 24.75082388 31 28 C32.69032345 29.64266923 34.35412604 31.31279685 36 33 C39.77486521 36.82010621 43.55813006 40.63191647 47.359375 44.42578125 C47.95975586 45.02559814 48.56013672 45.62541504 49.17871094 46.2434082 C51.64682131 48.62384442 54.22588842 50.85769593 56.84765625 53.06640625 C60.63292958 56.46696941 64.16805265 60.12868378 67.72680664 63.76391602 C70.66069784 66.74135291 73.6385435 69.59105537 76.8125 72.3125 C82.72324836 77.41464887 88.10225282 83.05834756 93.578125 88.6171875 C98.0137221 93.09360298 102.5008214 97.41014529 107.28515625 101.51220703 C109.45479269 103.39457669 111.48745134 105.38901297 113.5 107.4375 C114.50546875 108.45650391 114.50546875 108.45650391 115.53125 109.49609375 C116.0159375 109.99238281 116.500625 110.48867187 117 111 C115.7234698 114.80367121 114.44946919 116.82880927 111.3125 119.3125 C107.79256293 122.24472765 104.86964194 125.34336785 101.9140625 128.83203125 C99.70774516 131.33102333 97.37316307 133.65910047 95 136 C92.08946199 138.87557659 89.27575978 141.75874094 86.625 144.875 C83.58566571 148.4328937 80.32614555 151.71416209 77 155 C71.46334077 160.47598586 66.32288141 166.17392106 61.375 172.1875 C49.54318427 186.19886073 34.76090615 197.09482828 17 202 C15.87335938 202.35707031 14.74671875 202.71414063 13.5859375 203.08203125 C7.78862627 204.50187888 1.85821919 204.37202656 -4.07910156 204.37060547 C-6.10048793 204.37494735 -8.1196277 204.41126343 -10.140625 204.44921875 C-22.7527655 204.48624069 -33.69829228 201.62095516 -45 196 C-45 195.34 -45 194.68 -45 194 C-45.71542969 193.89945313 -46.43085937 193.79890625 -47.16796875 193.6953125 C-61.57795676 190.157412 -71.5704186 176.18437004 -80 165 C-80.87205078 163.87271484 -80.87205078 163.87271484 -81.76171875 162.72265625 C-83.28904566 160.59788916 -84.06932462 158.44302287 -85 156 C-85.50668213 155.09854248 -86.01336426 154.19708496 -86.53540039 153.26831055 C-88.17755212 149.60378559 -88.40078434 147.08125393 -88.43359375 143.08203125 C-88.44046707 142.43111008 -88.44734039 141.7801889 -88.454422 141.10954285 C-88.46807655 139.01003393 -88.45556786 136.91196121 -88.4375 134.8125 C-88.43512329 134.09779541 -88.43274658 133.38309082 -88.43029785 132.64672852 C-88.35795891 118.78098602 -87.53942923 105.24249247 -80.93017578 92.80444336 C-79.84292941 90.76568181 -79.84292941 90.76568181 -78.625 87.5625 C-74.56720663 78.66656839 -68.35189676 71.81698543 -61.68359375 64.78076172 C-59.84189683 62.83277197 -58.01419752 60.87221534 -56.1875 58.91015625 C-49.25149066 51.47799687 -42.25532491 44.1287725 -34.98486328 37.02172852 C-32.6921566 34.7679882 -30.79215966 32.6882395 -29 30 C-28.34 30 -27.68 30 -27 30 C-26.78730469 29.45859375 -26.57460937 28.9171875 -26.35546875 28.359375 C-24.5098181 25.14677271 -21.96038802 22.79446121 -19.3125 20.25 C-15.19880661 16.22453596 -11.2690514 12.1430751 -7.53515625 7.7578125 C-5.15541388 5.03291666 -2.58876506 2.52562445 0 0 Z " fill="#5FC988" transform="translate(120,139)"/>
<path d="M0 0 C14.05889213 11.96501458 14.05889213 11.96501458 20 18 C18.45872649 21.71268094 16.19156766 23.98115698 13.3125 26.75 C9.58863055 30.39372879 6.09521681 34.11404232 2.7109375 38.0703125 C0.251832 40.84382418 -2.39887221 43.40808489 -5.0390625 46.0078125 C-6.90478806 47.90327074 -8.64659255 49.85446735 -10.375 51.875 C-13.11621449 55.06682509 -16.00685888 58.04302977 -19 61 C-22.53120822 64.49403761 -25.87636468 68.05913397 -29.11328125 71.82421875 C-33.29910242 76.65134585 -37.63449626 81.3359883 -42 86 C-42.50837402 86.54914063 -43.01674805 87.09828125 -43.54052734 87.6640625 C-53.83808878 98.71667134 -65.08718243 106.90184944 -79 113 C-79.8353125 113.36867188 -80.670625 113.73734375 -81.53125 114.1171875 C-100.39803229 121.71939095 -125.80128283 121.29531703 -144.83203125 114.38671875 C-155.47434744 109.72824496 -165.33991145 103.76979908 -174 96 C-174.59683594 95.484375 -175.19367188 94.96875 -175.80859375 94.4375 C-179.93124078 90.62905009 -183.16679985 86.22261056 -186.4375 81.6875 C-186.88738281 81.06407715 -187.33726562 80.4406543 -187.80078125 79.79833984 C-191 75.25410793 -191 75.25410793 -191 73 C-191.66 73 -192.32 73 -193 73 C-193.4021875 71.9171875 -193.4021875 71.9171875 -193.8125 70.8125 C-194.89914952 68.01882429 -194.89914952 68.01882429 -196.4375 65.75 C-198.56932361 61.99799045 -199.72955661 58.10949544 -201 54 C-201.29390625 53.12085938 -201.5878125 52.24171875 -201.890625 51.3359375 C-202.17421875 50.46195312 -202.4578125 49.58796875 -202.75 48.6875 C-203.14445312 47.48673828 -203.14445312 47.48673828 -203.546875 46.26171875 C-204.04000776 43.8003061 -203.79741588 42.35453201 -203 40 C-201.29729986 42.67567164 -199.95278029 45.13116585 -198.875 48.125 C-196.50716661 53.86292431 -191.9863114 58.33780882 -188 63 C-187.22269531 63.99773437 -187.22269531 63.99773437 -186.4296875 65.015625 C-182.39952631 70.12817234 -177.40786761 73.45053641 -172 77 C-171.39414063 77.42667969 -170.78828125 77.85335937 -170.1640625 78.29296875 C-167.45967061 80.1942798 -165.21160605 81.28630977 -162 82 C-161.67 82.66 -161.34 83.32 -161 84 C-149.20792688 90.10616784 -136.69969143 91.50800079 -123.625 91.4375 C-122.31789063 91.45748047 -121.01078125 91.47746094 -119.6640625 91.49804688 C-97.09472406 91.48685177 -77.85205776 81.68947255 -62 66 C-61.01 64.515 -61.01 64.515 -60 63 C-59.34 63 -58.68 63 -58 63 C-57.74605469 62.41734375 -57.49210938 61.8346875 -57.23046875 61.234375 C-55.86679667 58.75811967 -54.35774797 57.19479374 -52.3125 55.25 C-49.6614298 52.67006764 -47.14213433 50.07119037 -44.75 47.25 C-41.18126161 43.09192867 -37.30962326 39.28117524 -33.41430664 35.43383789 C-29.97569023 32.0212019 -26.73252603 28.50517768 -23.59375 24.8125 C-21.34824461 22.25878799 -18.92843487 19.90130682 -16.48046875 17.54296875 C-14.78164495 15.86292628 -14.78164495 15.86292628 -13 13 C-12.34 13 -11.68 13 -11 13 C-10.7421875 12.40316406 -10.484375 11.80632812 -10.21875 11.19140625 C-8.89941578 8.81914183 -7.6125068 7.61586875 -5.5 5.9375 C-3.06335088 3.99127814 -1.77737879 2.66606818 0 0 Z " fill="#34805D" transform="translate(237,251)"/>
<path d="M0 0 C15.26966048 1.95879027 30.59215269 15.4155827 40 27 C52.9852754 44.87363428 60.04204113 64.31794612 59.8125 86.4375 C59.81090881 87.20915497 59.80931763 87.98080994 59.80767822 88.77584839 C59.67956256 110.16539119 54.18924922 131.95641489 39.875 148.4375 C39.41125977 148.97334717 38.94751953 149.50919434 38.46972656 150.0612793 C34.57128755 154.50203623 30.4296035 158.68520426 26.21166992 162.82080078 C22.81833963 166.14903521 19.65386241 169.59050055 16.57421875 173.20703125 C14.41419977 175.66720175 12.08069726 177.92964924 9.74609375 180.22265625 C7.93522357 182.06593574 6.24678646 183.97822799 4.5625 185.9375 C2.14382221 188.74576347 -0.35899683 191.39970593 -3 194 C-5.62040609 196.58009215 -8.10323412 199.21103607 -10.5 202 C-13.51039766 205.50300819 -16.71775133 208.73770851 -20.0078125 211.9765625 C-22.64865452 214.6588295 -25.10671667 217.47807388 -27.5546875 220.3359375 C-28.65402798 221.60166464 -29.8145434 222.8145434 -31 224 C-35.08969544 223.80774936 -37.05849558 221.21222282 -39.75 218.375 C-43.98418481 214.00260738 -48.34943665 209.92310093 -53 206 C-52.319375 205.505 -51.63875 205.01 -50.9375 204.5 C-47.92392876 201.93525852 -45.51394637 199.20764586 -42.953125 196.20703125 C-40.88710351 193.87242697 -38.72113836 191.68714135 -36.5 189.5 C-31.69280108 184.75012713 -27.14106836 179.83173557 -23.0625 174.4375 C-21.20690347 172.24452229 -19.36741899 170.54168397 -17.1875 168.6875 C-13.74556986 165.7463295 -10.83575216 162.61662983 -7.9140625 159.16796875 C-5.70774516 156.66897667 -3.37316307 154.34089953 -1 152 C2.66762194 148.37690155 6.1271291 144.66235814 9.47265625 140.7421875 C10.82575972 139.19874978 12.2820203 137.74711653 13.75 136.3125 C16.00817559 133.99159732 17.35044392 131.77125422 19 129 C20.07701479 127.5577599 21.16065361 126.12044864 22.25 124.6875 C29.37019264 114.63457409 34.33193018 102.15308013 36 90 C36.33 89.67 36.66 89.34 37 89 C37.11339222 86.63343763 37.16417635 84.29721057 37.16796875 81.9296875 C37.17129715 81.21523468 37.17462555 80.50078186 37.17805481 79.76467896 C37.18312999 78.24644618 37.18546295 76.72820219 37.18530273 75.20996094 C37.18747139 72.9054061 37.20557031 70.60134389 37.22460938 68.296875 C37.2275469 66.82031413 37.22952929 65.34375099 37.23046875 63.8671875 C37.24124702 62.8433345 37.24124702 62.8433345 37.25224304 61.79879761 C37.23076339 57.21241673 36.34595338 53.36426299 35 49 C35 48.01 35 47.02 35 46 C34.34 46 33.68 46 33 46 C32.81824219 44.66195312 32.81824219 44.66195312 32.6328125 43.296875 C32.46523438 42.12640625 32.29765625 40.9559375 32.125 39.75 C31.96257812 38.58984375 31.80015625 37.4296875 31.6328125 36.234375 C31.07482334 33.38243039 30.33005519 31.52598717 29 29 C29 28.01 29 27.02 29 26 C28.4225 25.95875 27.845 25.9175 27.25 25.875 C23.00098174 24.22260401 21.41473481 19.88356546 19.5625 15.9375 C16.76911112 10.6859289 13.52528556 7.99524201 8 6 C7.505 5.01 7.505 5.01 7 4 C4.69034152 2.94647157 2.3570226 1.94280904 0 1 C0 0.67 0 0.34 0 0 Z " fill="#B5C9C8" transform="translate(302,28)"/>
<path d="M0 0 C1.65 0 3.3 0 5 0 C5.01981934 0.6297876 5.03963867 1.2595752 5.06005859 1.90844727 C5.15598897 4.7935136 5.2653897 7.6779223 5.375 10.5625 C5.4059375 11.55314453 5.436875 12.54378906 5.46875 13.56445312 C5.68868234 19.08108932 6.33886 23.74865418 8 29 C8.21794764 31.71562756 8.0958736 34.26760245 8 37 C5.525 37.495 5.525 37.495 3 38 C-2.8789702 31.85380388 -2.31769233 22.13570826 -2.25 14.1875 C-2.25773437 13.26001953 -2.26546875 12.33253906 -2.2734375 11.37695312 C-2.27085938 10.48298828 -2.26828125 9.58902344 -2.265625 8.66796875 C-2.26336914 7.86641357 -2.26111328 7.0648584 -2.25878906 6.23901367 C-1.97414448 3.77630094 -1.22933672 2.13546898 0 0 Z " fill="#E4F7EE" transform="translate(65,261)"/>
<path d="M0 0 C2.1875 -0.3125 2.1875 -0.3125 5 0 C7.625 2.3125 7.625 2.3125 10 5 C10.61875 5.495 11.2375 5.99 11.875 6.5 C13 8 13 8 12.75 10.625 C12 13 12 13 11 14 C7.88942508 14.3875127 6.49033089 14.36728207 3.9453125 12.4609375 C-1.0138941 6.77806985 -1.0138941 6.77806985 -0.9375 2.5 C-0.628125 1.675 -0.31875 0.85 0 0 Z " fill="#DBF2E6" transform="translate(76,310)"/>
<path d="M0 0 C0.33 0.66 0.66 1.32 1 2 C-0.92010776 5.86616292 -3.45348526 8.72379536 -6.5 11.75 C-7.2734375 12.52859375 -8.046875 13.3071875 -8.84375 14.109375 C-11 16 -11 16 -14 17 C-15.61888847 18.82053772 -15.61888847 18.82053772 -17.1875 21.0625 C-20.72070946 25.75339937 -24.49866572 30.20232257 -29 34 C-29.66 34 -30.32 34 -31 34 C-29.38970745 29.90107352 -26.42182852 27.23795187 -23.3125 24.25 C-19.28612962 20.30952552 -15.45199906 16.31792197 -11.80078125 12.0234375 C-8.06631765 7.82722894 -4.00671101 3.93415488 0 0 Z " fill="#57AB7D" transform="translate(83,178)"/>
<path d="M0 0 C2.0625 0.9375 2.0625 0.9375 2.7578125 2.703125 C3.0625 4.9375 3.0625 4.9375 1.8046875 6.859375 C-3.28227212 11.83991287 -3.28227212 11.83991287 -6.875 12.375 C-7.8959375 12.1584375 -7.8959375 12.1584375 -8.9375 11.9375 C-9.875 9.875 -9.875 9.875 -9.9375 6.9375 C-7.34782616 3.1490454 -4.76583259 -0.10140069 0 0 Z " fill="#E8F7F1" transform="translate(80.9375,236.0625)"/>
<path d="M0 0 C0.99 0.33 1.98 0.66 3 1 C3 1.66 3 2.32 3 3 C1.59670281 3.90334575 0.19218255 4.80483697 -1.21777344 5.69775391 C-5.36674129 8.7293422 -8.58313288 12.93775907 -11.96484375 16.77539062 C-12.55652344 17.43087891 -13.14820312 18.08636719 -13.7578125 18.76171875 C-14.2852002 19.35944092 -14.81258789 19.95716309 -15.35595703 20.57299805 C-17.21899518 22.19008418 -18.59119418 22.60114992 -21 23 C-17.22427612 18.50994998 -13.33667419 14.13816994 -9.375 9.8125 C-8.90795654 9.30170898 -8.44091309 8.79091797 -7.9597168 8.26464844 C-5.36802259 5.44404504 -2.73091631 2.6860421 0 0 Z " fill="#54A479" transform="translate(120,139)"/>
<path d="M0 0 C0.33 0.66 0.66 1.32 1 2 C-2.42355986 7.80516671 -7.71557202 15.56941189 -14.28125 17.76171875 C-14.8484375 17.84035156 -15.415625 17.91898438 -16 18 C-11.37338295 11.26695568 -5.86878323 5.66001228 0 0 Z " fill="#C9D7D7" transform="translate(177,75)"/>
<path d="M0 0 C0 3.9630046 -1.27346349 4.75603761 -3.9375 7.625 C-5.15566406 8.93984375 -5.15566406 8.93984375 -6.3984375 10.28125 C-10.20042145 14.25449449 -14.06994535 18.15356353 -18 22 C-18 19 -18 19 -16.27734375 17.01953125 C-15.50519531 16.29121094 -14.73304687 15.56289062 -13.9375 14.8125 C-10.22533377 11.22914711 -6.76087228 7.54995693 -3.41015625 3.62890625 C-2.32370902 2.37392427 -1.17374345 1.17374345 0 0 Z " fill="#375854" transform="translate(89,144)"/>
<path d="M0 0 C0.66 0.33 1.32 0.66 2 1 C1.3503125 1.5878125 1.3503125 1.5878125 0.6875 2.1875 C-1.14164898 4.00305796 -1.14164898 4.00305796 -2.4375 6.625 C-4 9 -4 9 -6.1875 9.8125 C-6.785625 9.874375 -7.38375 9.93625 -8 10 C-8 10.66 -8 11.32 -8 12 C-9.29233607 13.37310707 -10.62437146 14.71034824 -12 16 C-12.66 15.67 -13.32 15.34 -14 15 C-12.625 13 -12.625 13 -11 11 C-10.34 11 -9.68 11 -9 11 C-8.74476563 10.41734375 -8.48953125 9.8346875 -8.2265625 9.234375 C-6.88258913 6.78611777 -5.38189704 5.18256752 -3.375 3.25 C-2.74335938 2.63640625 -2.11171875 2.0228125 -1.4609375 1.390625 C-0.73777344 0.70226563 -0.73777344 0.70226563 0 0 Z " fill="#AFC1BF" transform="translate(207,43)"/>
<path d="M0 0 C0 3.67819168 -0.76843318 4.22382655 -3.1875 6.875 C-3.82171875 7.57367188 -4.4559375 8.27234375 -5.109375 8.9921875 C-7.35961863 11.38190904 -9.64357276 13.71497964 -12 16 C-12.66 15.67 -13.32 15.34 -14 15 C-13.36384766 14.38125 -13.36384766 14.38125 -12.71484375 13.75 C-8.24761277 9.35149565 -4.0721472 4.76527863 0 0 Z " fill="#CAD7D7" transform="translate(313,167)"/>
<path d="M0 0 C0 0.66 0 1.32 0 2 C-0.99 2.33 -1.98 2.66 -3 3 C-3.78375 3.78375 -4.5675 4.5675 -5.375 5.375 C-7.81851324 7.81851324 -9.90327609 9.49348566 -13 11 C-13.66 10.67 -14.32 10.34 -15 10 C-3.73333333 0 -3.73333333 0 0 0 Z " fill="#B0BEBD" transform="translate(224,32)"/>
<path d="M0 0 C0.87205078 0.34417969 0.87205078 0.34417969 1.76171875 0.6953125 C1.18421875 0.9428125 0.60671875 1.1903125 0.01171875 1.4453125 C-3.33154533 3.30268144 -5.75747378 5.25289009 -6.98828125 8.9453125 C-7.07078125 9.5228125 -7.15328125 10.1003125 -7.23828125 10.6953125 C-5.91828125 11.0253125 -4.59828125 11.3553125 -3.23828125 11.6953125 C-4.88828125 11.6953125 -6.53828125 11.6953125 -8.23828125 11.6953125 C-9.17578125 9.6328125 -9.17578125 9.6328125 -9.23828125 6.6953125 C-4.14348584 -0.56403472 -4.14348584 -0.56403472 0 0 Z " fill="#CCEFDB" transform="translate(80.23828125,236.3046875)"/>
<path d="M0 0 C0 3.69834896 -0.81364222 4.27081428 -3.25 6.9375 C-3.88550781 7.63746094 -4.52101562 8.33742188 -5.17578125 9.05859375 C-7.07727446 11.08223855 -8.99660415 13.07673998 -11 15 C-11.66 14.67 -12.32 14.34 -13 14 C-12.48050781 13.49210937 -11.96101562 12.98421875 -11.42578125 12.4609375 C-7.3775629 8.46509906 -3.55349109 4.44186386 0 0 Z " fill="#344946" transform="translate(164,62)"/>
<path d="M0 0 C2.1519437 3.22791555 2.20086443 4.28400809 2 8 C1.01 8 0.02 8 -1 8 C-0.67 6.68 -0.34 5.36 0 4 C-2.35367713 3.3121764 -2.35367713 3.3121764 -5 3 C-5.99 3.66 -6.98 4.32 -8 5 C-7.625 3.0625 -7.625 3.0625 -7 1 C-4.46578263 -0.26710868 -2.80561762 -0.28056176 0 0 Z " fill="#7BC99D" transform="translate(83,234)"/>
<path d="M0 0 C0.66 0.33 1.32 0.66 2 1 C0.75965588 2.32162881 -0.49268626 3.63200453 -1.75 4.9375 C-2.44609375 5.66839844 -3.1421875 6.39929688 -3.859375 7.15234375 C-6.00599725 9.00517646 -7.23532932 9.60771565 -10 10 C-3.84965831 2.51708428 -3.84965831 2.51708428 0 0 Z " fill="#5AAF7F" transform="translate(109,152)"/>
<path d="M0 0 C0.33 0.66 0.66 1.32 1 2 C-0.76227632 5.61730402 -2.64326421 7.80075931 -6 10 C-6.66 9.67 -7.32 9.34 -8 9 C-5.36 6.03 -2.72 3.06 0 0 Z " fill="#C1CFCD" transform="translate(147,107)"/>
<path d="M0 0 C0 3.66842255 -0.79029126 5.10451959 -3 8 C-5.6875 8.8125 -5.6875 8.8125 -8 9 C-7.04270084 7.87411986 -6.08412105 6.7493285 -5.125 5.625 C-4.59132812 4.99851562 -4.05765625 4.37203125 -3.5078125 3.7265625 C-2.38567993 2.44163349 -1.20628025 1.20628025 0 0 Z " fill="#AEC1C0" transform="translate(160,93)"/>
<path d="M0 0 C4.34159496 0.50483662 7.49408652 1.31900734 11 4 C11 4.99 11 5.98 11 7 C10.01 6.67 9.02 6.34 8 6 C7.67 5.34 7.34 4.68 7 4 C4.69034152 2.94647157 2.3570226 1.94280904 0 1 C0 0.67 0 0.34 0 0 Z " fill="#CBDBD9" transform="translate(302,28)"/>
<path d="M0 0 C0.66 0 1.32 0 2 0 C4.43425238 4.96993194 5.34615998 8.34605369 5 14 C3.37723842 11.56585763 2.38255208 9.68680554 1.375 7 C0.98441406 5.9790625 0.98441406 5.9790625 0.5859375 4.9375 C0 3 0 3 0 0 Z " fill="#DCE5E2" transform="translate(329,54)"/>
<path d="M0 0 C0.99 0.33 1.98 0.66 3 1 C0.69 3.31 -1.62 5.62 -4 8 C-4.33 7.01 -4.66 6.02 -5 5 C-3.35 3.35 -1.7 1.7 0 0 Z " fill="#5EB685" transform="translate(89,172)"/>
<path d="M0 0 C-0.625 1.875 -0.625 1.875 -2 4 C-5.125 5.25 -5.125 5.25 -8 6 C-3.38461538 0 -3.38461538 0 0 0 Z " fill="#D9E6E5" transform="translate(156,101)"/>
<path d="M0 0 C0.33 0.99 0.66 1.98 1 3 C-0.98 4.98 -2.96 6.96 -5 9 C-5.66 8.67 -6.32 8.34 -7 8 C-4.69 5.36 -2.38 2.72 0 0 Z " fill="#354F4D" transform="translate(311,208)"/>
<path d="M0 0 C0 3 0 6 0 9 C-1.32 8.01 -2.64 7.02 -4 6 C-2.84826645 3.53199953 -1.95216435 1.95216435 0 0 Z " fill="#B5C6C4" transform="translate(138,117)"/>
</svg>
